<svg width="400" height="400" viewBox="0 0 400 400" fill="none" xmlns="http://www.w3.org/2000/svg">
  <!-- Background circle -->
  <circle cx="200" cy="200" r="200" fill="#0A2540"/>
  
  <!-- Inner circle (subtle depth) -->
  <circle cx="200" cy="200" r="170" fill="#0D2E52"/>
  
  <!-- Gold ring -->
  <circle cx="200" cy="200" r="155" stroke="#D4AF37" stroke-width="3" fill="none"/>
  
  <!-- Monogram IP -->
  <g transform="translate(110, 110)">
    <!-- Letter I -->
    <rect x="0" y="0" width="25" height="180" fill="#D4AF37"/>
    <rect x="-15" y="0" width="55" height="25" fill="#D4AF37"/>
    <rect x="-15" y="155" width="55" height="25" fill="#D4AF37"/>
    
    <!-- Letter P -->
    <path d="M 65 0 L 65 180 L 90 180 L 90 95 L 145 95 C 180 95 205 75 205 45 C 205 15 180 0 145 0 Z M 90 20 L 145 20 C 165 20 180 27 180 45 C 180 63 165 75 145 75 L 90 75 Z" fill="#D4AF37"/>
  </g>
  
  <!-- Accent dots -->
  <circle cx="200" cy="50" r="5" fill="#D4AF37" opacity="0.6"/>
  <circle cx="350" cy="200" r="5" fill="#D4AF37" opacity="0.6"/>
  <circle cx="200" cy="350" r="5" fill="#D4AF37" opacity="0.6"/>
  <circle cx="50" cy="200" r="5" fill="#D4AF37" opacity="0.6"/>
</svg>
